<svg version="1.1" xmlns="http://www.w3.org/2000/svg" viewBox="0 0 1962.345518548238 1287.8208259089772" width="1962.345518548238" height="1287.8208259089772" filter="invert(93%) hue-rotate(180deg)">
  <!-- svg-source:excalidraw -->
  
  <defs>
    <style class="style-fonts">
      @font-face {
        font-family: "Virgil";
        src: url("https://excalidraw.com/Virgil.woff2");
      }
      @font-face {
        font-family: "Cascadia";
        src: url("https://excalidraw.com/Cascadia.woff2");
      }
      @font-face {
        font-family: "Assistant";
        src: url("https://excalidraw.com/Assistant-Regular.woff2");
      }
    </style>
    
  </defs>
  <g stroke-linecap="round" transform="translate(609.3349739559851 461.75372316496714) rotate(0 255.52833183768792 218.74769274478604)"><path d="M32 0 C165.74 -0.32, 297.54 0.63, 479.06 0 M32 0 C184.52 -0.77, 336.88 -0.91, 479.06 0 M479.06 0 C501.09 0.36, 512.66 9.91, 511.06 32 M479.06 0 C500.59 -1.32, 511.26 11.2, 511.06 32 M511.06 32 C510.13 172.05, 510.62 312.23, 511.06 405.5 M511.06 32 C509.46 165.56, 508.98 299.59, 511.06 405.5 M511.06 405.5 C510.41 428.33, 502.22 437.16, 479.06 437.5 M511.06 405.5 C511.86 426.46, 498.19 439.02, 479.06 437.5 M479.06 437.5 C333.67 437.16, 188.76 436.7, 32 437.5 M479.06 437.5 C347.1 437.83, 214.46 437.75, 32 437.5 M32 437.5 C8.83 437.39, -0.39 425.22, 0 405.5 M32 437.5 C10.62 439.45, -1.76 428.4, 0 405.5 M0 405.5 C1.99 313.19, 1.08 219.64, 0 32 M0 405.5 C-1.54 264.01, -1.07 120.99, 0 32 M0 32 C-1.36 9.02, 12.05 -0.82, 32 0 M0 32 C-0.47 9.94, 11.08 -0.61, 32 0" stroke="#1e1e1e" stroke-width="2" fill="none"></path></g><g transform="translate(801.8369386061729 659.8014159097531) rotate(0 63.026367187499886 20.700000000000045)"><text x="63.0263671875" y="0" font-family="Helvetica, Segoe UI Emoji" font-size="36px" fill="#1e1e1e" text-anchor="middle" style="white-space: pre;" direction="ltr" dominant-baseline="text-before-edge">goyacm</text></g><g transform="translate(10 605.1796982480116) rotate(0 231.93903874934426 126.30841051195546)"><text x="0" y="0" font-family="Helvetica, Segoe UI Emoji" font-size="36.61113348172624px" fill="#1e1e1e" text-anchor="start" style="white-space: pre;" direction="ltr" dominant-baseline="text-before-edge">type Config struct {</text><text x="0" y="42.10280350398517" font-family="Helvetica, Segoe UI Emoji" font-size="36.61113348172624px" fill="#1e1e1e" text-anchor="start" style="white-space: pre;" direction="ltr" dominant-baseline="text-before-edge">	A int                  `tags...`</text><text x="0" y="84.20560700797034" font-family="Helvetica, Segoe UI Emoji" font-size="36.61113348172624px" fill="#1e1e1e" text-anchor="start" style="white-space: pre;" direction="ltr" dominant-baseline="text-before-edge">	B string             `tags...`</text><text x="0" y="126.30841051195551" font-family="Helvetica, Segoe UI Emoji" font-size="36.61113348172624px" fill="#1e1e1e" text-anchor="start" style="white-space: pre;" direction="ltr" dominant-baseline="text-before-edge">	C NestedStruct `tags...`</text><text x="0" y="168.4112140159407" font-family="Helvetica, Segoe UI Emoji" font-size="36.61113348172624px" fill="#1e1e1e" text-anchor="start" style="white-space: pre;" direction="ltr" dominant-baseline="text-before-edge">}</text><text x="0" y="210.51401751992586" font-family="Helvetica, Segoe UI Emoji" font-size="36.61113348172624px" fill="#1e1e1e" text-anchor="start" style="white-space: pre;" direction="ltr" dominant-baseline="text-before-edge"></text></g><g stroke-linecap="round"><g transform="translate(492.50333960182707 688.4102264101564) rotate(0 51.64047467187265 0.7631651584288193)"><path d="M-0.88 0.26 C16.38 0.63, 86.91 2.18, 104.23 2.26 M0.87 -0.65 C17.98 -0.62, 86.9 0.13, 103.77 0.52" stroke="#1e1e1e" stroke-width="2" fill="none"></path></g><g transform="translate(492.50333960182707 688.4102264101564) rotate(0 51.64047467187265 0.7631651584288193)"><path d="M75.43 10.33 C86.02 8.6, 96.96 3.09, 103.77 0.52 M75.43 10.33 C82.42 7.69, 88.22 5.29, 103.77 0.52" stroke="#1e1e1e" stroke-width="2" fill="none"></path></g><g transform="translate(492.50333960182707 688.4102264101564) rotate(0 51.64047467187265 0.7631651584288193)"><path d="M75.75 -10.19 C86.22 -4.57, 97.05 -2.73, 103.77 0.52 M75.75 -10.19 C82.61 -8.02, 88.33 -5.61, 103.77 0.52" stroke="#1e1e1e" stroke-width="2" fill="none"></path></g></g><mask></mask><g transform="translate(1387.8949836345423 10) rotate(0 113.95745849609375 147.35981226394813)"><text x="0" y="0" font-family="Helvetica, Segoe UI Emoji" font-size="36.61113348172624px" fill="#1e1e1e" text-anchor="start" style="white-space: pre;" direction="ltr" dominant-baseline="text-before-edge">CLI Args:</text><text x="0" y="42.10280350398517" font-family="Helvetica, Segoe UI Emoji" font-size="36.61113348172624px" fill="#1e1e1e" text-anchor="start" style="white-space: pre;" direction="ltr" dominant-baseline="text-before-edge">-a </text><text x="0" y="84.20560700797034" font-family="Helvetica, Segoe UI Emoji" font-size="36.61113348172624px" fill="#1e1e1e" text-anchor="start" style="white-space: pre;" direction="ltr" dominant-baseline="text-before-edge">    set a config</text><text x="0" y="126.30841051195551" font-family="Helvetica, Segoe UI Emoji" font-size="36.61113348172624px" fill="#1e1e1e" text-anchor="start" style="white-space: pre;" direction="ltr" dominant-baseline="text-before-edge">-b</text><text x="0" y="168.4112140159407" font-family="Helvetica, Segoe UI Emoji" font-size="36.61113348172624px" fill="#1e1e1e" text-anchor="start" style="white-space: pre;" direction="ltr" dominant-baseline="text-before-edge">    set b config</text><text x="0" y="210.51401751992586" font-family="Helvetica, Segoe UI Emoji" font-size="36.61113348172624px" fill="#1e1e1e" text-anchor="start" style="white-space: pre;" direction="ltr" dominant-baseline="text-before-edge">-c</text><text x="0" y="252.61682102391103" font-family="Helvetica, Segoe UI Emoji" font-size="36.61113348172624px" fill="#1e1e1e" text-anchor="start" style="white-space: pre;" direction="ltr" dominant-baseline="text-before-edge">    set c config</text></g><g transform="translate(1265.2202219158648 1109.4096118930365) rotate(0 57.497108459472656 84.20560700797034)"><text x="0" y="0" font-family="Helvetica, Segoe UI Emoji" font-size="36.61113348172624px" fill="#1e1e1e" text-anchor="start" style="white-space: pre;" direction="ltr" dominant-baseline="text-before-edge">Env:</text><text x="0" y="42.10280350398517" font-family="Helvetica, Segoe UI Emoji" font-size="36.61113348172624px" fill="#1e1e1e" text-anchor="start" style="white-space: pre;" direction="ltr" dominant-baseline="text-before-edge">A=10</text><text x="0" y="84.20560700797034" font-family="Helvetica, Segoe UI Emoji" font-size="36.61113348172624px" fill="#1e1e1e" text-anchor="start" style="white-space: pre;" direction="ltr" dominant-baseline="text-before-edge">B=asdf</text><text x="0" y="126.30841051195551" font-family="Helvetica, Segoe UI Emoji" font-size="36.61113348172624px" fill="#1e1e1e" text-anchor="start" style="white-space: pre;" direction="ltr" dominant-baseline="text-before-edge">C=...</text></g><g stroke-linecap="round" transform="translate(1395.7704601802848 485.26217531963084) rotate(0 278.28752918397663 238.23094093264763)"><path d="M32 0 C211.98 -0.91, 392.76 -1.58, 524.58 0 M32 0 C197.22 -0.74, 361.85 -0.2, 524.58 0 M524.58 0 C544.32 1.74, 557.84 11.44, 556.58 32 M524.58 0 C546.2 -1.57, 557.36 11.47, 556.58 32 M556.58 32 C557.23 128.54, 557.69 225.39, 556.58 444.46 M556.58 32 C556.18 126.23, 556.45 220.85, 556.58 444.46 M556.58 444.46 C556.25 464.87, 547.55 476, 524.58 476.46 M556.58 444.46 C555.02 467.69, 546.62 475.36, 524.58 476.46 M524.58 476.46 C362.51 475.19, 201.03 476.13, 32 476.46 M524.58 476.46 C341.62 477.25, 157.87 477.11, 32 476.46 M32 476.46 C9.84 475.77, -0.62 466.95, 0 444.46 M32 476.46 C8.45 477.1, 0.61 466.54, 0 444.46 M0 444.46 C-0.34 332.3, 0.73 221.52, 0 32 M0 444.46 C0.96 292.04, 1.2 138.53, 0 32 M0 32 C-1.32 10.54, 12.09 -0.25, 32 0 M0 32 C1.02 10.58, 11.2 -1.97, 32 0" stroke="#1e1e1e" stroke-width="2" fill="none"></path></g><g transform="translate(1400.7704601802848 490.26217531963084) rotate(0 162.6034698486328 22.580487454701938)"><text x="0" y="0" font-family="Helvetica, Segoe UI Emoji" font-size="39.27041296469904px" fill="#1e1e1e" text-anchor="start" style="white-space: pre;" direction="ltr" dominant-baseline="text-before-edge">Configuration files:</text></g><g transform="translate(1704.186954603298 560.3102827546486) rotate(0 75.29236602783203 126.30841051195557)"><text x="0" y="0" font-family="Helvetica, Segoe UI Emoji" font-size="36.61113348172624px" fill="#1e1e1e" text-anchor="start" style="white-space: pre;" direction="ltr" dominant-baseline="text-before-edge">yaml</text><text x="0" y="42.10280350398517" font-family="Helvetica, Segoe UI Emoji" font-size="36.61113348172624px" fill="#1e1e1e" text-anchor="start" style="white-space: pre;" direction="ltr" dominant-baseline="text-before-edge">a: 10</text><text x="0" y="84.20560700797034" font-family="Helvetica, Segoe UI Emoji" font-size="36.61113348172624px" fill="#1e1e1e" text-anchor="start" style="white-space: pre;" direction="ltr" dominant-baseline="text-before-edge">b: asdf</text><text x="0" y="126.30841051195551" font-family="Helvetica, Segoe UI Emoji" font-size="36.61113348172624px" fill="#1e1e1e" text-anchor="start" style="white-space: pre;" direction="ltr" dominant-baseline="text-before-edge">c:</text><text x="0" y="168.4112140159407" font-family="Helvetica, Segoe UI Emoji" font-size="36.61113348172624px" fill="#1e1e1e" text-anchor="start" style="white-space: pre;" direction="ltr" dominant-baseline="text-before-edge">    a: 10</text><text x="0" y="210.51401751992586" font-family="Helvetica, Segoe UI Emoji" font-size="36.61113348172624px" fill="#1e1e1e" text-anchor="start" style="white-space: pre;" direction="ltr" dominant-baseline="text-before-edge">    b: asdf</text></g><g transform="translate(1423.6472824614907 557.8380975680991) rotate(0 101.28360748291016 189.46261576793324)"><text x="0" y="0" font-family="Helvetica, Segoe UI Emoji" font-size="36.61113348172624px" fill="#1e1e1e" text-anchor="start" style="white-space: pre;" direction="ltr" dominant-baseline="text-before-edge">json</text><text x="0" y="42.10280350398517" font-family="Helvetica, Segoe UI Emoji" font-size="36.61113348172624px" fill="#1e1e1e" text-anchor="start" style="white-space: pre;" direction="ltr" dominant-baseline="text-before-edge">{</text><text x="0" y="84.20560700797034" font-family="Helvetica, Segoe UI Emoji" font-size="36.61113348172624px" fill="#1e1e1e" text-anchor="start" style="white-space: pre;" direction="ltr" dominant-baseline="text-before-edge">  "a": 10,</text><text x="0" y="126.30841051195551" font-family="Helvetica, Segoe UI Emoji" font-size="36.61113348172624px" fill="#1e1e1e" text-anchor="start" style="white-space: pre;" direction="ltr" dominant-baseline="text-before-edge">  "b": "asdf",</text><text x="0" y="168.4112140159407" font-family="Helvetica, Segoe UI Emoji" font-size="36.61113348172624px" fill="#1e1e1e" text-anchor="start" style="white-space: pre;" direction="ltr" dominant-baseline="text-before-edge">  "c": {</text><text x="0" y="210.51401751992586" font-family="Helvetica, Segoe UI Emoji" font-size="36.61113348172624px" fill="#1e1e1e" text-anchor="start" style="white-space: pre;" direction="ltr" dominant-baseline="text-before-edge">    "a": 10,</text><text x="0" y="252.61682102391103" font-family="Helvetica, Segoe UI Emoji" font-size="36.61113348172624px" fill="#1e1e1e" text-anchor="start" style="white-space: pre;" direction="ltr" dominant-baseline="text-before-edge">    "b": "asdf"</text><text x="0" y="294.7196245278962" font-family="Helvetica, Segoe UI Emoji" font-size="36.61113348172624px" fill="#1e1e1e" text-anchor="start" style="white-space: pre;" direction="ltr" dominant-baseline="text-before-edge">  }</text><text x="0" y="336.8224280318814" font-family="Helvetica, Segoe UI Emoji" font-size="36.61113348172624px" fill="#1e1e1e" text-anchor="start" style="white-space: pre;" direction="ltr" dominant-baseline="text-before-edge">}</text></g><g stroke-linecap="round"><g transform="translate(1137.8891098131594 460.2011140651732) rotate(0 114.52596428588481 -74.34425614592499)"><path d="M-1.14 1.06 C36.96 -23.67, 190.1 -123.05, 228.43 -147.9 M0.46 0.57 C38.98 -24.54, 192.89 -124.51, 230.82 -149.61" stroke="#1e1e1e" stroke-width="2" fill="none"></path></g><g transform="translate(1137.8891098131594 460.2011140651732) rotate(0 114.52596428588481 -74.34425614592499)"><path d="M212.85 -125.58 C219.67 -133.33, 224.37 -139.47, 230.82 -149.61 M212.85 -125.58 C218.84 -134.28, 225.97 -142.84, 230.82 -149.61" stroke="#1e1e1e" stroke-width="2" fill="none"></path></g><g transform="translate(1137.8891098131594 460.2011140651732) rotate(0 114.52596428588481 -74.34425614592499)"><path d="M201.61 -142.75 C211.73 -145.47, 219.64 -146.69, 230.82 -149.61 M201.61 -142.75 C211.75 -145.43, 222.87 -147.89, 230.82 -149.61" stroke="#1e1e1e" stroke-width="2" fill="none"></path></g></g><mask></mask><g stroke-linecap="round"><g transform="translate(1131.491660476136 682.8751290418281) rotate(0 125.9220103751586 7.754306238655886)"><path d="M1.15 -0.55 C43.13 2.15, 210.41 13.82, 252.1 16.62 M0.3 1.77 C42.13 4.13, 209.63 12.99, 251.29 15.07" stroke="#1e1e1e" stroke-width="2" fill="none"></path></g><g transform="translate(1131.491660476136 682.8751290418281) rotate(0 125.9220103751586 7.754306238655886)"><path d="M222.6 23.86 C230.73 21.23, 242.58 17.11, 251.29 15.07 M222.6 23.86 C233.62 20.95, 243.8 17.43, 251.29 15.07" stroke="#1e1e1e" stroke-width="2" fill="none"></path></g><g transform="translate(1131.491660476136 682.8751290418281) rotate(0 125.9220103751586 7.754306238655886)"><path d="M223.66 3.37 C231.53 7.24, 243.04 9.6, 251.29 15.07 M223.66 3.37 C234.14 7.83, 243.93 11.69, 251.29 15.07" stroke="#1e1e1e" stroke-width="2" fill="none"></path></g></g><mask></mask><g stroke-linecap="round"><g transform="translate(1119.7476114440765 904.8144617397827) rotate(0 69.15927264582092 100.47665376850432)"><path d="M0.24 0.25 C23.05 33.53, 114.98 167.16, 137.8 200.66 M-1.1 -0.66 C21.44 32.71, 113.15 168.15, 136.58 202.04" stroke="#1e1e1e" stroke-width="2" fill="none"></path></g><g transform="translate(1119.7476114440765 904.8144617397827) rotate(0 69.15927264582092 100.47665376850432)"><path d="M112.2 184.55 C121.88 190.17, 130.07 195.65, 136.58 202.04 M112.2 184.55 C120.5 190.56, 128.88 195.5, 136.58 202.04" stroke="#1e1e1e" stroke-width="2" fill="none"></path></g><g transform="translate(1119.7476114440765 904.8144617397827) rotate(0 69.15927264582092 100.47665376850432)"><path d="M129.15 172.97 C132.58 182.96, 134.44 192.76, 136.58 202.04 M129.15 172.97 C132.12 182.62, 135.05 191.28, 136.58 202.04" stroke="#1e1e1e" stroke-width="2" fill="none"></path></g></g><mask></mask></svg>